<svg xmlns="http://www.w3.org/2000/svg" width="1200" height="1500" viewBox="0 0 1200 1500">
 <rect width="1200" height="1500" fill="#f5f3e8"/>
 <circle cx="1040" cy="180" r="290" fill="#bff144" opacity=".16"/>
 <rect x="70" y="80" width="1060" height="1340" rx="34" fill="#f5f3e8" stroke="#10291d" stroke-opacity=".28" stroke-width="3"/>
 <rect x="70" y="80" width="1060" height="92" rx="34" fill="#f5f3e8"/>
 <circle cx="115" cy="126" r="10" fill="#bff144"/><circle cx="145" cy="126" r="10" fill="#10291d" opacity=".35"/><circle cx="175" cy="126" r="10" fill="#10291d" opacity=".18"/>
 <text x="230" y="139" font-family="Arial,Helvetica,sans-serif" font-size="28" font-weight="800" fill="#10291d">NEIGHBORLY</text>
 <rect x="820" y="108" width="245" height="42" rx="21" fill="#bff144"/>
 <text x="942" y="136" text-anchor="middle" font-family="Arial,Helvetica,sans-serif" font-size="16" font-weight="800" fill="#f5f3e8">CONCEPT DESIGN</text>
 <text x="115" y="290" font-family="Arial,Helvetica,sans-serif" font-size="22" font-weight="800" letter-spacing="3" fill="#bff144">SERVICES MARKETPLACE</text>
 <text x="115" y="390" font-family="Arial,Helvetica,sans-serif" font-size="72" font-weight="900" fill="#10291d">LOCAL HELP, ONE</text>
 <text x="115" y="470" font-family="Arial,Helvetica,sans-serif" font-size="72" font-weight="900" fill="#10291d">BRIEF</text>
 <rect x="115" y="545" width="235" height="58" rx="12" fill="#bff144"/>
 <rect x="372" y="545" width="210" height="58" rx="12" fill="none" stroke="#10291d" stroke-opacity=".38" stroke-width="2"/>
 <rect x="115" y="690" width="970" height="380" rx="28" fill="#10291d" fill-opacity=".08" stroke="#10291d" stroke-opacity=".18" stroke-width="2"/>
 <rect x="150" y="730" width="420" height="300" rx="20" fill="#bff144" opacity=".92"/>
 <rect x="600" y="730" width="450" height="74" rx="18" fill="#10291d" fill-opacity=".12"/>
 <rect x="600" y="830" width="215" height="200" rx="18" fill="#10291d" fill-opacity=".1"/>
 <rect x="835" y="830" width="215" height="200" rx="18" fill="#10291d" fill-opacity=".16"/>
 <rect x="115" y="1125" width="300" height="180" rx="22" fill="#10291d" fill-opacity=".08"/>
 <rect x="450" y="1125" width="300" height="180" rx="22" fill="#10291d" fill-opacity=".12"/>
 <rect x="785" y="1125" width="300" height="180" rx="22" fill="#10291d" fill-opacity=".08"/>
 <text x="115" y="1370" font-family="Arial,Helvetica,sans-serif" font-size="22" font-weight="800" fill="#10291d" opacity=".65">WEBSITE DESIGN DOGS · PORTFOLIO CONCEPT</text>
 </svg>